<?xml version="1.0" encoding="utf-8"?>
<!-- Generator: Adobe Illustrator 21.0.0, SVG Export Plug-In . SVG Version: 6.00 Build 0)  -->
<svg version="1.1" id="Layer_1" xmlns="http://www.w3.org/2000/svg" xmlns:xlink="http://www.w3.org/1999/xlink" x="0px" y="0px"
	 viewBox="0 0 716.9 813.9" style="enable-background:new 0 0 716.9 813.9;" xml:space="preserve">
<g>
	<path d="M84,813.9c-4.7,0-9.3,0-14,0c-5.6-1.4-11.2-3.3-16.9-3.9c-13-1.4-26.1-2.2-39.2-3c-7-0.5-9.3-2.6-8.6-9.6
		c0.3-3.3,0.9-6.6,1.8-9.8c2.5-8.7,1.5-17.1-1.5-25.4c-1.6-4.5-3.7-8.8-5.6-13.2c0-3,0-6,0-9c0.4-2.9,0.8-5.9,1.1-8.8
		c5-44.2,9.5-88.4,15.2-132.5c5.6-42.9,11.7-85.8,18.9-128.4c6.7-39.4,15-78.5,22.8-117.7c10.3-52,22.9-103.4,39.3-153.8
		c7.2-22,14.3-43.7,32-61c16.3-15.9,33.4-29.5,54.7-37.4c10.6-3.9,21.6-6.8,32.3-10.4c2.1-0.7,5-2.1,5.4-3.7
		c1.3-5.4,5.4-7.2,9.5-9.4c5.5-2.9,6-3.9,3.2-9.3c-4-7.5-4.5-15.1-2-23.2c1.1-3.5,1.6-7.1,2.6-10.7c3.7-13.7,11.9-23.3,25.9-27.2
		c8.6-2.4,17.4-4.4,26.1-6.5c5,0,10,0,15,0c0.9,0.3,1.9,0.7,2.8,0.8C325.4,1.9,346,3,366.7,3.9C390,5,413.3,5.6,436.5,7.3
		c8.6,0.6,17.3,3.3,25.6,6c5.3,1.7,9.5,5.8,9.8,12.1c0.2,4,0.6,8.2-0.3,12c-3.1,12.2,1.6,21.3,10.2,29.5c2.4,2.3,4.5,5.8,4.8,8.9
		c0.6,6.3,4.2,9,9.4,10.6c2.2,0.7,4.5,1.2,6.7,1.9c16.9,5,34.2,8.9,50.6,15.2c22.7,8.6,38.9,24.4,48.8,47.2
		c14,32.4,25.9,65.6,36.8,99.2c22.9,70.2,35.4,142.8,49.7,214.9c5.6,28.2,9.9,56.8,13.7,85.3c4.8,35.6,8.5,71.4,12.6,107.1
		c0.8,6.6,1.2,13.2,1.8,19.8c0,9.3,0,18.7,0,28c-2.3,12.4-5.3,24.5-2.5,37.4c3,14.3,0.1,16.9-14.6,15.1c-0.2,0-0.3-0.1-0.5-0.1
		c-11.5-1-22.8-0.9-34.1,2.4c-6.8,2-14.1,2.3-21.1,3.1c-3.6,0.4-5.6-1.5-6.1-5.1c-2.6-16.7-11.1-30.8-19.3-45.2
		c-1.7-3-3.5-6.1-4.6-9.4c-6.2-18.6-12.1-37.4-18.1-56c-4.8-14.7-9.3-29.5-14.6-44.1c-11-30.2-22.7-60.1-33.8-90.2
		c-3.4-9.1-5.8-18.6-8.7-27.9c-2,25.7-3.5,51.5-4.7,77.2c-1.7,35.4-3.5,70.9-1,106.4c1.3,17.9,0,35.2-6.6,52.1
		c-1.1,2.8-1.6,5.8-2.3,8.7c-1.9,9-4.3,11.3-13.5,11.2c-15.7-0.2-31.3-0.6-46.9-1.3c-34-1.4-67.9-4-101.8-4.2
		c-52.3-0.2-104.6,1.2-156.9,1.8c-17,0.2-20.7-4-17.6-20.6c1.3-6.9,1-13.5-1.1-20.2c-1.9-5.9-3.4-11.8-5.5-17.6
		c-4.7-13.1-5.7-26.6-4.4-40.4c1.7-17.9,2.8-35.9,4.4-53.8c2.1-23.5,4.6-47.1,6.7-70.6c0.4-4.4,0.1-8.8,0.1-13.2
		c-10.5,33.4-19.1,66.9-29.8,99.8c-18.5,56.7-31.7,115.2-55.8,170.1c-4.4,10-6.8,20.8-10.1,31.3C90.4,806.6,88.9,811.3,84,813.9z
		 M533.3,333.3c1.6,41.2,3.1,82.7,4.7,124.1c1.1-14.5,0.8-29,2.5-43.3c2.9-23.4,7.2-46.6,10.8-69.9c0.6-3.5,0.9-7.1,1.3-10.9
		C545.6,333.3,539.4,333.3,533.3,333.3z"/>
</g>
</svg>
