<?xml version="1.0" encoding="utf-8"?>
<!-- Generator: Adobe Illustrator 21.0.0, SVG Export Plug-In . SVG Version: 6.00 Build 0)  -->
<svg version="1.1" id="Layer_1" xmlns="http://www.w3.org/2000/svg" xmlns:xlink="http://www.w3.org/1999/xlink" x="0px" y="0px"
	 viewBox="0 0 716.9 846.9" style="enable-background:new 0 0 716.9 846.9;" xml:space="preserve">
<g>
	<path d="M492.9,0c2.7,0,5.3,0,8,0c12.3,3.5,12.6,3.5,12.7,16.8c0.2,15.1-0.2,30.2-0.5,45.3c-0.1,4.1,1.6,6.6,5.4,7.8
		c13.3,4.4,26.7,8.5,39.7,13.4c11.6,4.4,23.5,8.3,33,17.1c11.9,11,19.9,24.5,26.3,39c9.5,21.8,14.8,44.9,19.3,68.1
		c7,36.4,13.3,73,20.3,109.5c10.8,56.8,16.5,114.3,23.7,171.5c4.5,35.1,8.7,70.3,13.8,105.4c5.7,39.5,12.4,78.9,18.4,118.4
		c1.7,10.8,2.6,21.7,3.8,32.6c0,7,0,14,0,21c-2.3,7.4-4.7,14.7-7,22.1c-0.9,2.9-1.9,5.8-2,8.7c-0.5,10.6-0.7,21.3-0.8,31.9
		c-0.1,9.5-1.5,11.6-11,13.3c-17.4,3.2-34.8,2.4-52.3,1c-4.7-0.4-7.6-3.1-8.8-7.5c-1.8-6.8-3.2-13.6-5.2-20.3
		c-2.4-7.9-4.4-16.2-8.5-23.3c-3.3-5.7-6.3-11.2-7.5-17.6c-1-4.9-2.1-9.8-3.4-14.6c-12.6-45.5-26-90.9-37.8-136.6
		c-9.2-35.4-16.5-71.3-24.6-107c-0.2-0.9-0.7-1.8-1.1-2.7c-0.9,2-0.9,3.8-0.9,5.6c1,26.6,2.2,53.2,3.1,79.8
		c0.7,19.1,1.5,38.2,1.7,57.4c0.1,9.2-0.9,18.5-1.9,27.7c-0.6,5.9-2.7,11.7-3,17.6c-0.4,11.3,0.4,22.7,0,34
		c-0.5,13.7-6.8,21.4-20.4,22.7c-23.7,2.2-47.4,4.2-71.2,4.7c-36.7,0.9-73.4,0.3-110.2,0.7c-22.6,0.2-45.3,1.2-67.9,1.7
		c-9.7,0.2-19.3-0.3-29-0.3c-15.5,0.1-31,0.3-46.1-4.2c-5.9-1.7-11.6-4-17.3-6.4c-4.1-1.8-6.4-4.9-6.3-9.8c0.3-9.6,0.1-19.3,0.4-29
		c0.2-6-2.1-10.8-5.2-15.7c-2.9-4.5-5.9-9.6-6.6-14.7c-1.5-10.3-2.1-20.9-2-31.4c0.5-35.8,1.4-71.6,2.2-107.3c0.2-8.2,0-16.4,0-22.5
		c-1,3.8-2.4,9.9-4,16c-11.9,45.2-24.2,90.3-35.8,135.6C119.3,704,113,733,106,761.8c-2.2,9.3-5.5,18.2-12.1,25.4
		c-5.4,5.9-8.8,12.8-10.8,20.5c-1.8,7.1-4.2,14.1-5.6,21.2c-1.5,7.7-5.9,12-13.3,13.7c-6.4,1.5-12.9,2.8-19.3,4.2c-2,0-4,0-6,0
		c-2.3-0.3-4.6-0.5-6.8-1c-7.2-1.8-14.4-3.5-21.4-5.8c-5-1.6-6.9-5.8-6.7-11c0.2-5.6-0.2-11.4,0.6-16.9c2.5-18.4-2.5-36.2-4.6-54.2
		c0-2,0-4,0-6c0.4-5.3,0.4-10.6,1.1-15.8c4.9-36,10.1-71.9,14.8-107.9c7.5-57.9,14.1-116,22.1-173.9c7-50.9,14.5-101.9,23.6-152.5
		c6.1-33.7,15.9-66.7,22.9-100.3c5.5-26.4,13.4-51.6,26.6-75.4c11.7-21.1,27.9-35.7,50.9-42.9c16.5-5.1,33.1-10.1,49.6-15.2
		c0-1.5,0.2-2.6,0-3.5c-5-16.5-5.3-33.4-3.7-50.4c1-10.6,2.6-12.4,13.2-12.4c15.5,0,30.9,0.3,46.4,0.4c16.3,0.1,32.6,0,48.9,0
		c20,0,40,0,59.9,0.2c25.5,0.3,50.9,1.3,76.4,1.1C466.2,3.4,479.6,1.2,492.9,0z"/>
</g>
</svg>
